# xmcd
#
# Track frame offsets:
#	150
#	12571
#	22471
#	31505
#	39626
#	48864
#	57951
#	67317
#	80094
#	91497
#	101331
#	111583
#	120014
#	133317
#	144084
#	154804
#	167359
#	177868
#	187934
#	200438
#	208806
#	219198
#	228036
#	240636
#	248470
#
# Disc length: 3426 seconds
#
# Revision: 0
# Processed by: cddbd v1.5.2PL0 Copyright (c) Steve Scherf et al.
# Submitted via: audiograbber 1.83.01
#
DISCID=500d6019
DTITLE=Various Artist - Rockabilly Cowboys - Disc 8
DYEAR=2012
DGENRE=Country
TTITLE0=Billy Briggs - Chew Tobacco Rag
TTITLE1=Hawkshaw Hawkins - Rebound
TTITLE2=Faron Young - Alone With You
TTITLE3=Merle Kilgore - Ernie
TTITLE4=Skeets McDonald - You´re The
TTITLE5=Al Jones - Loretta
TTITLE6=Gene Henslee - ockin´ Baby
TTITLE7=Merle Travis - Louisiana Boogie
TTITLE8=Bob Luman - Make Up Your Mind Baby
TTITLE9=Dick Banks - Dirty Dog
TTITLE10=Junior Thompson - Raw Deal
TTITLE11=Jerry Lee Lewis - End Of The Road
TTITLE12=Jerry Reed - Rockin´ In Baghdad
TTITLE13=Slim Rhodes - Gonna Romp And Stomp
TTITLE14=The Miller Sisters - Ten Cats Down
TTITLE15=Johnny Cash - I Walk The Line
TTITLE16=Ray Scott - Boppin´ Wigwam Willie
TTITLE17=Hayden Thompson - I Love My Baby
TTITLE18=Billy Briggs - Chew Tobacco No. 2
TTITLE19=Johnny Tate - Bop With Me Baby
TTITLE20=Jimmy Martin - Rock The Bop
TTITLE21=Billie High - Wondering If You Still Care
TTITLE22=Jerry Lee Lewis - Crazy Arms
TTITLE23=Bob Luman - All Night Long
TTITLE24=Merle Kilgore - Ride Jessie Ride
EXTD=
EXTT0=
EXTT1=
EXTT2=
EXTT3=
EXTT4=
EXTT5=
EXTT6=
EXTT7=
EXTT8=
EXTT9=
EXTT10=
EXTT11=
EXTT12=
EXTT13=
EXTT14=
EXTT15=
EXTT16=
EXTT17=
EXTT18=
EXTT19=
EXTT20=
EXTT21=
EXTT22=
EXTT23=
EXTT24=
PLAYORDER=
